#!OML:ASF H:\BreakDance\Project 1\Capture day 1\Session 1\Male.ASF
:FULLY-SPECIFIED
:DEGREES
332
root -8.99574 9.19814 -3.04939 -125.872 -82.4132 140.897
lowerback 27.2647 -0.235197 -0.812483
upperback 9.41934 -1.38668 -0.00522006
thorax -4.56532 -1.03914 0.906634
lowerneck -4.73514 -4.92201 -1.69262
upperneck 158.467 -173.726 -170.561
head 174.674 -175.941 -176.505
rclavicle 1.82882e-014 -7.95139e-015
rhumerus -11.7258 -14.8393 -78.9063
rradius 28.6995
rwrist -18.0392
rhand 0.481396 -44.2351
rfingers 7.12502
rthumb 26.0514 -72.4688
lclavicle 1.82882e-014 -7.95139e-015
lhumerus -2.11079 -23.5654 74.2586
lradius 45.4923
lwrist 17.5966
lhand -26.6792 -28.984
lfingers 7.12502
lthumb -0.110276 0.995698
rfemur -109.114 -35.4728 14.5024
rtibia 133.324
rfoot -23.6136 26.357
rtoes -23.0823
lfemur -110.899 9.56125 -33.1612
ltibia 124.803
lfoot -34.6968 -2.55632
ltoes -26.0383
333
root -9.01512 9.063 -3.06313 -125.952 -82.2636 140.544
lowerback 28.0086 -0.328441 -0.616313
upperback 9.49148 -1.47961 0.122163
thorax -4.83621 -1.09291 0.978535
lowerneck -4.47653 -4.77714 -0.995821
upperneck 158.054 -173.826 -171.22
head 174.44 -175.958 -176.802
rclavicle 1.07344e-014 3.97569e-015
rhumerus -11.6379 -15.4962 -78.7999
rradius 28.4311
rwrist -18.2718
rhand 0.310942 -44.3548
rfingers 7.12502
rthumb 25.8882 -72.6124
lclavicle 1.07344e-014 3.97569e-015
lhumerus -1.4953 -23.2666 73.8407
lradius 46.5191
lwrist 18.4687
lhand -27.1512 -29.4434
lfingers 7.12502
lthumb -0.566116 0.535617
rfemur -110.109 -36.5899 14.7432
rtibia 134.517
rfoot -23.6408 27.1131
rtoes -22.814
lfemur -111.504 9.88451 -33.4096
ltibia 125.994
lfoot -34.7137 -2.52437
ltoes -25.1326
334
root -9.0331 8.92947 -3.07691 -126.294 -82.0726 140.519
lowerback 28.6556 -0.407043 -0.436732
upperback 9.54448 -1.54963 0.261757
thorax -5.07976 -1.13491 1.06646
lowerneck -4.3515 -4.69605 -0.953374
upperneck 157.765 -173.907 -171.393
head 174.314 -175.989 -176.849
rclavicle -2.38542e-014 -2.94201e-014
rhumerus -11.5658 -16.2426 -78.6504
rradius 28.1074
rwrist -18.4619
rhand 0.286685 -44.3901
rfingers 7.12502
rthumb 25.8649 -72.6511
lclavicle -2.38542e-014 -2.94201e-014
lhumerus -0.873436 -22.9687 73.3915
lradius 47.5559
lwrist 19.2983
lhand -27.572 -29.8288
lfingers 7.12502
lthumb -0.9725 0.148707
rfemur -111.222 -37.6465 14.9929
rtibia 135.656
rfoot -23.5754 28.0149
rtoes -22.4609
lfemur -112.201 10.2837 -33.6675
ltibia 127.183
lfoot -34.5906 -2.57651
ltoes -24.1477
335
root -9.05039 8.80034 -3.0913 -127.06 -81.8362 140.957
lowerback 29.215 -0.437864 -0.220522
upperback 9.60226 -1.54723 0.376593
thorax -5.27764 -1.1416 1.08191
lowerneck -4.37605 -4.6475 -0.782984
upperneck 157.564 -173.929 -171.615
head 174.237 -175.99 -176.939
rclavicle -2.62396e-014 2.38542e-015
rhumerus -11.5592 -17.2644 -78.4923
rradius 27.7984
rwrist -18.5699
rhand 0.367824 -44.3793
rfingers 7.12502
rthumb 25.9426 -72.629
lclavicle -2.62396e-014 2.38542e-015
lhumerus -0.173091 -22.8152 72.8398
lradius 48.6084
lwrist 20.1105
lhand -27.9286 -30.1106
lfingers 7.12502
lthumb -1.31694 -0.134955
rfemur -112.369 -38.5825 15.2256
rtibia 136.721
rfoot -23.4694 29.0325
rtoes -22.1508
lfemur -112.956 10.8197 -33.954
ltibia 128.373
lfoot -34.4146 -2.67464
ltoes -23.4291
336
root -9.06728 8.67669 -3.10672 -128.326 -81.5573 141.917
lowerback 29.7111 -0.44268 -0.0964489
upperback 9.64895 -1.52808 0.562744
thorax -5.45292 -1.14225 1.2229
lowerneck -4.48041 -4.58068 -0.736485
upperneck 157.455 -173.972 -171.839
head 174.207 -176.014 -177.017
rclavicle 2.46493e-014 5.56597e-015
rhumerus -11.5964 -18.2135 -78.2434
rradius 27.5328
rwrist -18.6894
rhand 0.47565 -44.3933
rfingers 7.12502
rthumb 26.0459 -72.6279
lclavicle 2.46493e-014 5.56597e-015
lhumerus 0.454381 -22.517 72.3509
lradius 49.6639
lwrist 20.8524
lhand -28.2396 -30.3259
lfingers 7.12502
lthumb -1.61734 -0.352312
rfemur -113.517 -39.3746 15.4497
rtibia 137.715
rfoot -23.3536 30.1458
rtoes -21.9217
lfemur -113.765 11.5472 -34.2604
ltibia 129.564
lfoot -34.2594 -2.93164
ltoes -23.0699
